# xmcd CD database file
# Copyright 1993-1996 (C) Ti Kan
#
# Track frame offsets:
#    150
#    10395
#    22660
#    34330
#    45900
#    63340
#    73610
#    85780
#    98905
#    112580
#    127855
#    139350
#    150995
#    163440
#
# Disc length: 2417 seconds
#
# Revision: 1
# Processed by: cddbd v1.4b41PL1 Copyright (c) Steve Scherf et al.
# Submitted via: MyCDplayer 2.1.6  (wjohn@fix.net)
#
DISCID=a6096f0e
DTITLE=John Lee Hooker - The John Lee Hooker Collection
DYEAR=1900
DGENRE=
TTITLE0=Dimples
TTITLE1=I'm In The Mood
TTITLE2=Boogie Chillun
TTITLE3=Boom Boom
TTITLE4=Blues Before Sunrise
TTITLE5=Want Ad Blues
TTITLE6=Crawling King Snake
TTITLE7=Hobo blues
TTITLE8=Time is Marching
TTITLE9=Tupelo
TTITLE10=Little Wheel
TTITLE11=Shake, Holler And Run
TTITLE12=Whiskey And Wimmen
TTITLE13=Wednesday Evening Blues
EXTD=
EXTT0=
EXTT1=
EXTT2=
EXTT3=
EXTT4=
EXTT5=
EXTT6=
EXTT7=
EXTT8=
EXTT9=
EXTT10=
EXTT11=
EXTT12=
EXTT13=
PLAYORDER=
